<svg width="259" height="56" viewBox="0 0 259 56" fill="none" xmlns="http://www.w3.org/2000/svg">
<path d="M0.5 0H56L94 31.5L127.5 0H179.5L154.388 22.5L168.216 33.5L172 30C177 39.5 199.4 36.5 198 43.5C197 48.5 190 47 185 47L196.5 56H143.5L129.277 45L117 56H67L0.5 0Z" fill="url(#paint0_linear_404_447)"/>
<path d="M192 27C194 27.1379 213 30 211.5 42.5L259 0H207L198.5 8.5C201.3 7.3 207 9.83333 209.5 11.5L205.5 21.5C183 11 177.5 26 192 27Z" fill="url(#paint1_linear_404_447)"/>

<defs>
<linearGradient id="paint0_linear_404_447" x1="-31.4574" y1="-6.11495" x2="288.583" y2="137.177" gradientUnits="userSpaceOnUse">
<stop stop-color="#DEC9E9"/>
<stop offset="0.2375" stop-color="#C77DFF"/>
<stop offset="0.628125" stop-color="#7B2CBF"/>
</linearGradient>
<linearGradient id="paint1_linear_404_447" x1="-31.4574" y1="-6.11495" x2="288.583" y2="137.177" gradientUnits="userSpaceOnUse">
<stop stop-color="#DEC9E9"/>
<stop offset="0.2375" stop-color="#C77DFF"/>
<stop offset="0.628125" stop-color="#7B2CBF"/>
</linearGradient>
</defs>
</svg>
