<svg width="569" height="217" viewBox="0 0 569 217" fill="none" xmlns="http://www.w3.org/2000/svg">
<mask id="path-1-outside-1_436_381" maskUnits="userSpaceOnUse" x="0.52002" y="0.887939" width="568" height="216" fill="black">
<rect fill="white" x="0.52002" y="0.887939" width="568" height="216"/>
<path d="M59.64 41.0559C63.352 42.2719 66.296 44.3199 68.472 47.1999C70.648 50.0159 71.736 53.5359 71.736 57.7599C71.736 63.5839 69.496 68.0959 65.016 71.2959C60.536 74.4319 54.008 75.9999 45.432 75.9999H12.024V8.79994H43.512C51.448 8.79994 57.56 10.3679 61.848 13.5039C66.136 16.5759 68.28 20.8319 68.28 26.2719C68.28 29.5999 67.512 32.5439 65.976 35.1039C64.44 37.6639 62.328 39.6479 59.64 41.0559ZM24.504 18.5919V37.1199H42.168C46.52 37.1199 49.848 36.3519 52.152 34.8159C54.52 33.2159 55.704 30.9119 55.704 27.9039C55.704 24.8319 54.52 22.5279 52.152 20.9919C49.848 19.3919 46.52 18.5919 42.168 18.5919H24.504ZM44.664 66.2079C54.328 66.2079 59.16 62.9759 59.16 56.5119C59.16 50.0479 54.328 46.8159 44.664 46.8159H24.504V66.2079H44.664Z"/>
<path d="M106.943 76.6719C101.759 76.6719 97.0873 75.5519 92.9273 73.3119C88.7673 71.0719 85.5033 67.9679 83.1353 63.9999C80.8313 59.9679 79.6793 55.4239 79.6793 50.3679C79.6793 45.3119 80.8313 40.7999 83.1353 36.8319C85.5033 32.8639 88.7673 29.7599 92.9273 27.5199C97.0873 25.2799 101.759 24.1599 106.943 24.1599C112.191 24.1599 116.895 25.2799 121.055 27.5199C125.215 29.7599 128.447 32.8639 130.751 36.8319C133.119 40.7999 134.303 45.3119 134.303 50.3679C134.303 55.4239 133.119 59.9679 130.751 63.9999C128.447 67.9679 125.215 71.0719 121.055 73.3119C116.895 75.5519 112.191 76.6719 106.943 76.6719ZM106.943 66.3999C111.359 66.3999 115.007 64.9279 117.887 61.9839C120.767 59.0399 122.207 55.1679 122.207 50.3679C122.207 45.5679 120.767 41.6959 117.887 38.7519C115.007 35.8079 111.359 34.3359 106.943 34.3359C102.527 34.3359 98.8793 35.8079 95.9993 38.7519C93.1833 41.6959 91.7753 45.5679 91.7753 50.3679C91.7753 55.1679 93.1833 59.0399 95.9993 61.9839C98.8793 64.9279 102.527 66.3999 106.943 66.3999Z"/>
<path d="M157.202 32.2239C160.658 26.8479 166.738 24.1599 175.442 24.1599V35.5839C174.418 35.3919 173.49 35.2959 172.658 35.2959C167.986 35.2959 164.338 36.6719 161.714 39.4239C159.09 42.1119 157.778 46.0159 157.778 51.1359V75.9999H145.778V24.7359H157.202V32.2239Z"/>
<path d="M218.313 73.2159C216.905 74.3679 215.177 75.2319 213.129 75.8079C211.145 76.3839 209.033 76.6719 206.793 76.6719C201.161 76.6719 196.809 75.1999 193.737 72.2559C190.665 69.3119 189.129 65.0239 189.129 59.3919V34.7199H180.681V25.1199H189.129V13.4079H201.129V25.1199H214.857V34.7199H201.129V59.1039C201.129 61.5999 201.737 63.5199 202.953 64.8639C204.169 66.1439 205.929 66.7839 208.233 66.7839C210.921 66.7839 213.161 66.0799 214.953 64.6719L218.313 73.2159Z"/>
<path d="M257.273 24.1599C263.737 24.1599 268.921 26.0479 272.825 29.8239C276.729 33.5999 278.681 39.1999 278.681 46.6239V75.9999H266.681V48.1599C266.681 43.6799 265.625 40.3199 263.513 38.0799C261.401 35.7759 258.393 34.6239 254.489 34.6239C250.073 34.6239 246.585 35.9679 244.025 38.6559C241.465 41.2799 240.185 45.0879 240.185 50.0799V75.9999H228.185V24.7359H239.609V31.3599C241.593 28.9919 244.089 27.1999 247.097 25.9839C250.105 24.7679 253.497 24.1599 257.273 24.1599Z"/>
<path d="M340.966 24.7359L316.966 80.1279C314.726 85.6959 312.006 89.5999 308.806 91.8399C305.606 94.1439 301.734 95.2959 297.19 95.2959C294.63 95.2959 292.102 94.8799 289.606 94.0479C287.11 93.2159 285.062 92.0639 283.462 90.5919L288.262 81.7599C289.414 82.8479 290.758 83.7119 292.294 84.3519C293.894 84.9919 295.494 85.3119 297.094 85.3119C299.206 85.3119 300.934 84.7679 302.278 83.6799C303.686 82.5919 304.966 80.7679 306.118 78.2079L306.982 76.1919L284.614 24.7359H297.094L313.222 62.6559L329.446 24.7359H340.966Z"/>
<path d="M380.688 73.2159C379.28 74.3679 377.552 75.2319 375.504 75.8079C373.52 76.3839 371.408 76.6719 369.168 76.6719C363.536 76.6719 359.184 75.1999 356.112 72.2559C353.04 69.3119 351.504 65.0239 351.504 59.3919V34.7199H343.056V25.1199H351.504V13.4079H363.504V25.1199H377.232V34.7199H363.504V59.1039C363.504 61.5999 364.112 63.5199 365.328 64.8639C366.544 66.1439 368.304 66.7839 370.608 66.7839C373.296 66.7839 375.536 66.0799 377.328 64.6719L380.688 73.2159Z"/>
<path d="M406.4 76.6719C402.24 76.6719 398.176 76.1279 394.208 75.0399C390.24 73.9519 387.072 72.5759 384.704 70.9119L389.312 61.7919C391.616 63.3279 394.368 64.5759 397.568 65.5359C400.832 66.4319 404.032 66.8799 407.168 66.8799C414.336 66.8799 417.92 64.9919 417.92 61.2159C417.92 59.4239 416.992 58.1759 415.136 57.4719C413.344 56.7679 410.432 56.0959 406.4 55.4559C402.176 54.8159 398.72 54.0799 396.032 53.2479C393.408 52.4159 391.104 50.9759 389.12 48.9279C387.2 46.8159 386.24 43.9039 386.24 40.1919C386.24 35.3279 388.256 31.4559 392.288 28.5759C396.384 25.6319 401.888 24.1599 408.8 24.1599C412.32 24.1599 415.84 24.5759 419.36 25.4079C422.88 26.1759 425.76 27.2319 428 28.5759L423.392 37.6959C419.04 35.1359 414.144 33.8559 408.704 33.8559C405.184 33.8559 402.496 34.3999 400.64 35.4879C398.848 36.5119 397.952 37.8879 397.952 39.6159C397.952 41.5359 398.912 42.9119 400.832 43.7439C402.816 44.5119 405.856 45.2479 409.952 45.9519C414.048 46.5919 417.408 47.3279 420.032 48.1599C422.656 48.9919 424.896 50.3999 426.752 52.3839C428.672 54.3679 429.632 57.1839 429.632 60.8319C429.632 65.6319 427.552 69.4719 423.392 72.3519C419.232 75.2319 413.568 76.6719 406.4 76.6719Z"/>
<path d="M460.894 54.0159L451.966 62.4639V75.9999H439.966V4.76794H451.966V47.7759L476.83 24.7359H491.23L469.822 46.2399L493.246 75.9999H478.654L460.894 54.0159Z"/>
<path d="M546.091 24.7359L522.091 80.1279C519.851 85.6959 517.131 89.5999 513.931 91.8399C510.731 94.1439 506.859 95.2959 502.315 95.2959C499.755 95.2959 497.227 94.8799 494.731 94.0479C492.235 93.2159 490.187 92.0639 488.587 90.5919L493.387 81.7599C494.539 82.8479 495.883 83.7119 497.419 84.3519C499.019 84.9919 500.619 85.3119 502.219 85.3119C504.331 85.3119 506.059 84.7679 507.403 83.6799C508.811 82.5919 510.091 80.7679 511.243 78.2079L512.107 76.1919L489.739 24.7359H502.219L518.347 62.6559L534.571 24.7359H546.091Z"/>
<path d="M553.591 24.7359H565.591V75.9999H553.591V24.7359ZM559.639 16.2879C557.463 16.2879 555.639 15.6159 554.167 14.2719C552.695 12.8639 551.959 11.1359 551.959 9.08794C551.959 7.03994 552.695 5.34394 554.167 3.99994C555.639 2.59194 557.463 1.88794 559.639 1.88794C561.815 1.88794 563.639 2.55994 565.111 3.90394C566.583 5.18394 567.319 6.81594 567.319 8.79994C567.319 10.9119 566.583 12.7039 565.111 14.1759C563.703 15.5839 561.879 16.2879 559.639 16.2879Z"/>
<path d="M55.608 180.448H22.008L15.384 196H2.52002L32.76 128.8H45.048L75.384 196H62.328L55.608 180.448ZM51.48 170.656L38.808 141.28L26.232 170.656H51.48Z"/>
<path d="M82.7783 124.768H94.7783V196H82.7783V124.768Z"/>
<path d="M158.72 170.656C158.72 171.488 158.656 172.672 158.528 174.208H118.304C119.008 177.984 120.832 180.992 123.776 183.232C126.784 185.408 130.496 186.496 134.912 186.496C140.544 186.496 145.184 184.64 148.832 180.928L155.264 188.32C152.96 191.072 150.048 193.152 146.528 194.56C143.008 195.968 139.04 196.672 134.624 196.672C128.992 196.672 124.032 195.552 119.744 193.312C115.456 191.072 112.128 187.968 109.76 184C107.456 179.968 106.304 175.424 106.304 170.368C106.304 165.376 107.424 160.896 109.664 156.928C111.968 152.896 115.136 149.76 119.168 147.52C123.2 145.28 127.744 144.16 132.8 144.16C137.792 144.16 142.24 145.28 146.144 147.52C150.112 149.696 153.184 152.8 155.36 156.832C157.6 160.8 158.72 165.408 158.72 170.656ZM132.8 153.76C128.96 153.76 125.696 154.912 123.008 157.216C120.384 159.456 118.784 162.464 118.208 166.24H147.296C146.784 162.528 145.216 159.52 142.592 157.216C139.968 154.912 136.704 153.76 132.8 153.76Z"/>
<path d="M201.481 196L188.329 178.24L175.081 196H161.833L181.801 169.984L162.697 144.736H176.041L188.617 161.536L201.193 144.736H214.153L194.953 169.792L215.017 196H201.481Z"/>
<path d="M270.377 170.656C270.377 171.488 270.313 172.672 270.185 174.208H229.961C230.665 177.984 232.489 180.992 235.433 183.232C238.441 185.408 242.153 186.496 246.569 186.496C252.201 186.496 256.841 184.64 260.489 180.928L266.921 188.32C264.617 191.072 261.705 193.152 258.185 194.56C254.665 195.968 250.697 196.672 246.281 196.672C240.649 196.672 235.689 195.552 231.401 193.312C227.113 191.072 223.785 187.968 221.417 184C219.113 179.968 217.961 175.424 217.961 170.368C217.961 165.376 219.081 160.896 221.321 156.928C223.625 152.896 226.793 149.76 230.825 147.52C234.857 145.28 239.401 144.16 244.457 144.16C249.449 144.16 253.897 145.28 257.801 147.52C261.769 149.696 264.841 152.8 267.017 156.832C269.257 160.8 270.377 165.408 270.377 170.656ZM244.457 153.76C240.617 153.76 237.353 154.912 234.665 157.216C232.041 159.456 230.441 162.464 229.865 166.24H258.953C258.441 162.528 256.873 159.52 254.249 157.216C251.625 154.912 248.361 153.76 244.457 153.76Z"/>
<path d="M328.966 144.736L304.966 200.128C302.726 205.696 300.006 209.6 296.806 211.84C293.606 214.144 289.734 215.296 285.19 215.296C282.63 215.296 280.102 214.88 277.606 214.048C275.11 213.216 273.062 212.064 271.462 210.592L276.262 201.76C277.414 202.848 278.758 203.712 280.294 204.352C281.894 204.992 283.494 205.312 285.094 205.312C287.206 205.312 288.934 204.768 290.278 203.68C291.686 202.592 292.966 200.768 294.118 198.208L294.982 196.192L272.614 144.736H285.094L301.222 182.656L317.446 144.736H328.966Z"/>
</mask>
<path d="M59.64 41.0559C63.352 42.2719 66.296 44.3199 68.472 47.1999C70.648 50.0159 71.736 53.5359 71.736 57.7599C71.736 63.5839 69.496 68.0959 65.016 71.2959C60.536 74.4319 54.008 75.9999 45.432 75.9999H12.024V8.79994H43.512C51.448 8.79994 57.56 10.3679 61.848 13.5039C66.136 16.5759 68.28 20.8319 68.28 26.2719C68.28 29.5999 67.512 32.5439 65.976 35.1039C64.44 37.6639 62.328 39.6479 59.64 41.0559ZM24.504 18.5919V37.1199H42.168C46.52 37.1199 49.848 36.3519 52.152 34.8159C54.52 33.2159 55.704 30.9119 55.704 27.9039C55.704 24.8319 54.52 22.5279 52.152 20.9919C49.848 19.3919 46.52 18.5919 42.168 18.5919H24.504ZM44.664 66.2079C54.328 66.2079 59.16 62.9759 59.16 56.5119C59.16 50.0479 54.328 46.8159 44.664 46.8159H24.504V66.2079H44.664Z" fill="black"/>
<path d="M106.943 76.6719C101.759 76.6719 97.0873 75.5519 92.9273 73.3119C88.7673 71.0719 85.5033 67.9679 83.1353 63.9999C80.8313 59.9679 79.6793 55.4239 79.6793 50.3679C79.6793 45.3119 80.8313 40.7999 83.1353 36.8319C85.5033 32.8639 88.7673 29.7599 92.9273 27.5199C97.0873 25.2799 101.759 24.1599 106.943 24.1599C112.191 24.1599 116.895 25.2799 121.055 27.5199C125.215 29.7599 128.447 32.8639 130.751 36.8319C133.119 40.7999 134.303 45.3119 134.303 50.3679C134.303 55.4239 133.119 59.9679 130.751 63.9999C128.447 67.9679 125.215 71.0719 121.055 73.3119C116.895 75.5519 112.191 76.6719 106.943 76.6719ZM106.943 66.3999C111.359 66.3999 115.007 64.9279 117.887 61.9839C120.767 59.0399 122.207 55.1679 122.207 50.3679C122.207 45.5679 120.767 41.6959 117.887 38.7519C115.007 35.8079 111.359 34.3359 106.943 34.3359C102.527 34.3359 98.8793 35.8079 95.9993 38.7519C93.1833 41.6959 91.7753 45.5679 91.7753 50.3679C91.7753 55.1679 93.1833 59.0399 95.9993 61.9839C98.8793 64.9279 102.527 66.3999 106.943 66.3999Z" fill="black"/>
<path d="M157.202 32.2239C160.658 26.8479 166.738 24.1599 175.442 24.1599V35.5839C174.418 35.3919 173.49 35.2959 172.658 35.2959C167.986 35.2959 164.338 36.6719 161.714 39.4239C159.09 42.1119 157.778 46.0159 157.778 51.1359V75.9999H145.778V24.7359H157.202V32.2239Z" fill="black"/>
<path d="M218.313 73.2159C216.905 74.3679 215.177 75.2319 213.129 75.8079C211.145 76.3839 209.033 76.6719 206.793 76.6719C201.161 76.6719 196.809 75.1999 193.737 72.2559C190.665 69.3119 189.129 65.0239 189.129 59.3919V34.7199H180.681V25.1199H189.129V13.4079H201.129V25.1199H214.857V34.7199H201.129V59.1039C201.129 61.5999 201.737 63.5199 202.953 64.8639C204.169 66.1439 205.929 66.7839 208.233 66.7839C210.921 66.7839 213.161 66.0799 214.953 64.6719L218.313 73.2159Z" fill="black"/>
<path d="M257.273 24.1599C263.737 24.1599 268.921 26.0479 272.825 29.8239C276.729 33.5999 278.681 39.1999 278.681 46.6239V75.9999H266.681V48.1599C266.681 43.6799 265.625 40.3199 263.513 38.0799C261.401 35.7759 258.393 34.6239 254.489 34.6239C250.073 34.6239 246.585 35.9679 244.025 38.6559C241.465 41.2799 240.185 45.0879 240.185 50.0799V75.9999H228.185V24.7359H239.609V31.3599C241.593 28.9919 244.089 27.1999 247.097 25.9839C250.105 24.7679 253.497 24.1599 257.273 24.1599Z" fill="black"/>
<path d="M340.966 24.7359L316.966 80.1279C314.726 85.6959 312.006 89.5999 308.806 91.8399C305.606 94.1439 301.734 95.2959 297.19 95.2959C294.63 95.2959 292.102 94.8799 289.606 94.0479C287.11 93.2159 285.062 92.0639 283.462 90.5919L288.262 81.7599C289.414 82.8479 290.758 83.7119 292.294 84.3519C293.894 84.9919 295.494 85.3119 297.094 85.3119C299.206 85.3119 300.934 84.7679 302.278 83.6799C303.686 82.5919 304.966 80.7679 306.118 78.2079L306.982 76.1919L284.614 24.7359H297.094L313.222 62.6559L329.446 24.7359H340.966Z" fill="black"/>
<path d="M380.688 73.2159C379.28 74.3679 377.552 75.2319 375.504 75.8079C373.52 76.3839 371.408 76.6719 369.168 76.6719C363.536 76.6719 359.184 75.1999 356.112 72.2559C353.04 69.3119 351.504 65.0239 351.504 59.3919V34.7199H343.056V25.1199H351.504V13.4079H363.504V25.1199H377.232V34.7199H363.504V59.1039C363.504 61.5999 364.112 63.5199 365.328 64.8639C366.544 66.1439 368.304 66.7839 370.608 66.7839C373.296 66.7839 375.536 66.0799 377.328 64.6719L380.688 73.2159Z" fill="black"/>
<path d="M406.4 76.6719C402.24 76.6719 398.176 76.1279 394.208 75.0399C390.24 73.9519 387.072 72.5759 384.704 70.9119L389.312 61.7919C391.616 63.3279 394.368 64.5759 397.568 65.5359C400.832 66.4319 404.032 66.8799 407.168 66.8799C414.336 66.8799 417.92 64.9919 417.92 61.2159C417.92 59.4239 416.992 58.1759 415.136 57.4719C413.344 56.7679 410.432 56.0959 406.4 55.4559C402.176 54.8159 398.72 54.0799 396.032 53.2479C393.408 52.4159 391.104 50.9759 389.12 48.9279C387.2 46.8159 386.24 43.9039 386.24 40.1919C386.24 35.3279 388.256 31.4559 392.288 28.5759C396.384 25.6319 401.888 24.1599 408.8 24.1599C412.32 24.1599 415.84 24.5759 419.36 25.4079C422.88 26.1759 425.76 27.2319 428 28.5759L423.392 37.6959C419.04 35.1359 414.144 33.8559 408.704 33.8559C405.184 33.8559 402.496 34.3999 400.64 35.4879C398.848 36.5119 397.952 37.8879 397.952 39.6159C397.952 41.5359 398.912 42.9119 400.832 43.7439C402.816 44.5119 405.856 45.2479 409.952 45.9519C414.048 46.5919 417.408 47.3279 420.032 48.1599C422.656 48.9919 424.896 50.3999 426.752 52.3839C428.672 54.3679 429.632 57.1839 429.632 60.8319C429.632 65.6319 427.552 69.4719 423.392 72.3519C419.232 75.2319 413.568 76.6719 406.4 76.6719Z" fill="black"/>
<path d="M460.894 54.0159L451.966 62.4639V75.9999H439.966V4.76794H451.966V47.7759L476.83 24.7359H491.23L469.822 46.2399L493.246 75.9999H478.654L460.894 54.0159Z" fill="black"/>
<path d="M546.091 24.7359L522.091 80.1279C519.851 85.6959 517.131 89.5999 513.931 91.8399C510.731 94.1439 506.859 95.2959 502.315 95.2959C499.755 95.2959 497.227 94.8799 494.731 94.0479C492.235 93.2159 490.187 92.0639 488.587 90.5919L493.387 81.7599C494.539 82.8479 495.883 83.7119 497.419 84.3519C499.019 84.9919 500.619 85.3119 502.219 85.3119C504.331 85.3119 506.059 84.7679 507.403 83.6799C508.811 82.5919 510.091 80.7679 511.243 78.2079L512.107 76.1919L489.739 24.7359H502.219L518.347 62.6559L534.571 24.7359H546.091Z" fill="black"/>
<path d="M553.591 24.7359H565.591V75.9999H553.591V24.7359ZM559.639 16.2879C557.463 16.2879 555.639 15.6159 554.167 14.2719C552.695 12.8639 551.959 11.1359 551.959 9.08794C551.959 7.03994 552.695 5.34394 554.167 3.99994C555.639 2.59194 557.463 1.88794 559.639 1.88794C561.815 1.88794 563.639 2.55994 565.111 3.90394C566.583 5.18394 567.319 6.81594 567.319 8.79994C567.319 10.9119 566.583 12.7039 565.111 14.1759C563.703 15.5839 561.879 16.2879 559.639 16.2879Z" fill="black"/>
<path d="M55.608 180.448H22.008L15.384 196H2.52002L32.76 128.8H45.048L75.384 196H62.328L55.608 180.448ZM51.48 170.656L38.808 141.28L26.232 170.656H51.48Z" fill="black"/>
<path d="M82.7783 124.768H94.7783V196H82.7783V124.768Z" fill="black"/>
<path d="M158.72 170.656C158.72 171.488 158.656 172.672 158.528 174.208H118.304C119.008 177.984 120.832 180.992 123.776 183.232C126.784 185.408 130.496 186.496 134.912 186.496C140.544 186.496 145.184 184.64 148.832 180.928L155.264 188.32C152.96 191.072 150.048 193.152 146.528 194.56C143.008 195.968 139.04 196.672 134.624 196.672C128.992 196.672 124.032 195.552 119.744 193.312C115.456 191.072 112.128 187.968 109.76 184C107.456 179.968 106.304 175.424 106.304 170.368C106.304 165.376 107.424 160.896 109.664 156.928C111.968 152.896 115.136 149.76 119.168 147.52C123.2 145.28 127.744 144.16 132.8 144.16C137.792 144.16 142.24 145.28 146.144 147.52C150.112 149.696 153.184 152.8 155.36 156.832C157.6 160.8 158.72 165.408 158.72 170.656ZM132.8 153.76C128.96 153.76 125.696 154.912 123.008 157.216C120.384 159.456 118.784 162.464 118.208 166.24H147.296C146.784 162.528 145.216 159.52 142.592 157.216C139.968 154.912 136.704 153.76 132.8 153.76Z" fill="black"/>
<path d="M201.481 196L188.329 178.24L175.081 196H161.833L181.801 169.984L162.697 144.736H176.041L188.617 161.536L201.193 144.736H214.153L194.953 169.792L215.017 196H201.481Z" fill="black"/>
<path d="M270.377 170.656C270.377 171.488 270.313 172.672 270.185 174.208H229.961C230.665 177.984 232.489 180.992 235.433 183.232C238.441 185.408 242.153 186.496 246.569 186.496C252.201 186.496 256.841 184.64 260.489 180.928L266.921 188.32C264.617 191.072 261.705 193.152 258.185 194.56C254.665 195.968 250.697 196.672 246.281 196.672C240.649 196.672 235.689 195.552 231.401 193.312C227.113 191.072 223.785 187.968 221.417 184C219.113 179.968 217.961 175.424 217.961 170.368C217.961 165.376 219.081 160.896 221.321 156.928C223.625 152.896 226.793 149.76 230.825 147.52C234.857 145.28 239.401 144.16 244.457 144.16C249.449 144.16 253.897 145.28 257.801 147.52C261.769 149.696 264.841 152.8 267.017 156.832C269.257 160.8 270.377 165.408 270.377 170.656ZM244.457 153.76C240.617 153.76 237.353 154.912 234.665 157.216C232.041 159.456 230.441 162.464 229.865 166.24H258.953C258.441 162.528 256.873 159.52 254.249 157.216C251.625 154.912 248.361 153.76 244.457 153.76Z" fill="black"/>
<path d="M328.966 144.736L304.966 200.128C302.726 205.696 300.006 209.6 296.806 211.84C293.606 214.144 289.734 215.296 285.19 215.296C282.63 215.296 280.102 214.88 277.606 214.048C275.11 213.216 273.062 212.064 271.462 210.592L276.262 201.76C277.414 202.848 278.758 203.712 280.294 204.352C281.894 204.992 283.494 205.312 285.094 205.312C287.206 205.312 288.934 204.768 290.278 203.68C291.686 202.592 292.966 200.768 294.118 198.208L294.982 196.192L272.614 144.736H285.094L301.222 182.656L317.446 144.736H328.966Z" fill="black"/>
<path d="M59.64 41.0559C63.352 42.2719 66.296 44.3199 68.472 47.1999C70.648 50.0159 71.736 53.5359 71.736 57.7599C71.736 63.5839 69.496 68.0959 65.016 71.2959C60.536 74.4319 54.008 75.9999 45.432 75.9999H12.024V8.79994H43.512C51.448 8.79994 57.56 10.3679 61.848 13.5039C66.136 16.5759 68.28 20.8319 68.28 26.2719C68.28 29.5999 67.512 32.5439 65.976 35.1039C64.44 37.6639 62.328 39.6479 59.64 41.0559ZM24.504 18.5919V37.1199H42.168C46.52 37.1199 49.848 36.3519 52.152 34.8159C54.52 33.2159 55.704 30.9119 55.704 27.9039C55.704 24.8319 54.52 22.5279 52.152 20.9919C49.848 19.3919 46.52 18.5919 42.168 18.5919H24.504ZM44.664 66.2079C54.328 66.2079 59.16 62.9759 59.16 56.5119C59.16 50.0479 54.328 46.8159 44.664 46.8159H24.504V66.2079H44.664Z" stroke="black" stroke-width="2" mask="url(#path-1-outside-1_436_381)"/>
<path d="M106.943 76.6719C101.759 76.6719 97.0873 75.5519 92.9273 73.3119C88.7673 71.0719 85.5033 67.9679 83.1353 63.9999C80.8313 59.9679 79.6793 55.4239 79.6793 50.3679C79.6793 45.3119 80.8313 40.7999 83.1353 36.8319C85.5033 32.8639 88.7673 29.7599 92.9273 27.5199C97.0873 25.2799 101.759 24.1599 106.943 24.1599C112.191 24.1599 116.895 25.2799 121.055 27.5199C125.215 29.7599 128.447 32.8639 130.751 36.8319C133.119 40.7999 134.303 45.3119 134.303 50.3679C134.303 55.4239 133.119 59.9679 130.751 63.9999C128.447 67.9679 125.215 71.0719 121.055 73.3119C116.895 75.5519 112.191 76.6719 106.943 76.6719ZM106.943 66.3999C111.359 66.3999 115.007 64.9279 117.887 61.9839C120.767 59.0399 122.207 55.1679 122.207 50.3679C122.207 45.5679 120.767 41.6959 117.887 38.7519C115.007 35.8079 111.359 34.3359 106.943 34.3359C102.527 34.3359 98.8793 35.8079 95.9993 38.7519C93.1833 41.6959 91.7753 45.5679 91.7753 50.3679C91.7753 55.1679 93.1833 59.0399 95.9993 61.9839C98.8793 64.9279 102.527 66.3999 106.943 66.3999Z" stroke="black" stroke-width="2" mask="url(#path-1-outside-1_436_381)"/>
<path d="M157.202 32.2239C160.658 26.8479 166.738 24.1599 175.442 24.1599V35.5839C174.418 35.3919 173.49 35.2959 172.658 35.2959C167.986 35.2959 164.338 36.6719 161.714 39.4239C159.09 42.1119 157.778 46.0159 157.778 51.1359V75.9999H145.778V24.7359H157.202V32.2239Z" stroke="black" stroke-width="2" mask="url(#path-1-outside-1_436_381)"/>
<path d="M218.313 73.2159C216.905 74.3679 215.177 75.2319 213.129 75.8079C211.145 76.3839 209.033 76.6719 206.793 76.6719C201.161 76.6719 196.809 75.1999 193.737 72.2559C190.665 69.3119 189.129 65.0239 189.129 59.3919V34.7199H180.681V25.1199H189.129V13.4079H201.129V25.1199H214.857V34.7199H201.129V59.1039C201.129 61.5999 201.737 63.5199 202.953 64.8639C204.169 66.1439 205.929 66.7839 208.233 66.7839C210.921 66.7839 213.161 66.0799 214.953 64.6719L218.313 73.2159Z" stroke="black" stroke-width="2" mask="url(#path-1-outside-1_436_381)"/>
<path d="M257.273 24.1599C263.737 24.1599 268.921 26.0479 272.825 29.8239C276.729 33.5999 278.681 39.1999 278.681 46.6239V75.9999H266.681V48.1599C266.681 43.6799 265.625 40.3199 263.513 38.0799C261.401 35.7759 258.393 34.6239 254.489 34.6239C250.073 34.6239 246.585 35.9679 244.025 38.6559C241.465 41.2799 240.185 45.0879 240.185 50.0799V75.9999H228.185V24.7359H239.609V31.3599C241.593 28.9919 244.089 27.1999 247.097 25.9839C250.105 24.7679 253.497 24.1599 257.273 24.1599Z" stroke="black" stroke-width="2" mask="url(#path-1-outside-1_436_381)"/>
<path d="M340.966 24.7359L316.966 80.1279C314.726 85.6959 312.006 89.5999 308.806 91.8399C305.606 94.1439 301.734 95.2959 297.19 95.2959C294.63 95.2959 292.102 94.8799 289.606 94.0479C287.11 93.2159 285.062 92.0639 283.462 90.5919L288.262 81.7599C289.414 82.8479 290.758 83.7119 292.294 84.3519C293.894 84.9919 295.494 85.3119 297.094 85.3119C299.206 85.3119 300.934 84.7679 302.278 83.6799C303.686 82.5919 304.966 80.7679 306.118 78.2079L306.982 76.1919L284.614 24.7359H297.094L313.222 62.6559L329.446 24.7359H340.966Z" stroke="black" stroke-width="2" mask="url(#path-1-outside-1_436_381)"/>
<path d="M380.688 73.2159C379.28 74.3679 377.552 75.2319 375.504 75.8079C373.52 76.3839 371.408 76.6719 369.168 76.6719C363.536 76.6719 359.184 75.1999 356.112 72.2559C353.04 69.3119 351.504 65.0239 351.504 59.3919V34.7199H343.056V25.1199H351.504V13.4079H363.504V25.1199H377.232V34.7199H363.504V59.1039C363.504 61.5999 364.112 63.5199 365.328 64.8639C366.544 66.1439 368.304 66.7839 370.608 66.7839C373.296 66.7839 375.536 66.0799 377.328 64.6719L380.688 73.2159Z" stroke="black" stroke-width="2" mask="url(#path-1-outside-1_436_381)"/>
<path d="M406.4 76.6719C402.24 76.6719 398.176 76.1279 394.208 75.0399C390.24 73.9519 387.072 72.5759 384.704 70.9119L389.312 61.7919C391.616 63.3279 394.368 64.5759 397.568 65.5359C400.832 66.4319 404.032 66.8799 407.168 66.8799C414.336 66.8799 417.92 64.9919 417.92 61.2159C417.92 59.4239 416.992 58.1759 415.136 57.4719C413.344 56.7679 410.432 56.0959 406.4 55.4559C402.176 54.8159 398.72 54.0799 396.032 53.2479C393.408 52.4159 391.104 50.9759 389.12 48.9279C387.2 46.8159 386.24 43.9039 386.24 40.1919C386.24 35.3279 388.256 31.4559 392.288 28.5759C396.384 25.6319 401.888 24.1599 408.8 24.1599C412.32 24.1599 415.84 24.5759 419.36 25.4079C422.88 26.1759 425.76 27.2319 428 28.5759L423.392 37.6959C419.04 35.1359 414.144 33.8559 408.704 33.8559C405.184 33.8559 402.496 34.3999 400.64 35.4879C398.848 36.5119 397.952 37.8879 397.952 39.6159C397.952 41.5359 398.912 42.9119 400.832 43.7439C402.816 44.5119 405.856 45.2479 409.952 45.9519C414.048 46.5919 417.408 47.3279 420.032 48.1599C422.656 48.9919 424.896 50.3999 426.752 52.3839C428.672 54.3679 429.632 57.1839 429.632 60.8319C429.632 65.6319 427.552 69.4719 423.392 72.3519C419.232 75.2319 413.568 76.6719 406.4 76.6719Z" stroke="black" stroke-width="2" mask="url(#path-1-outside-1_436_381)"/>
<path d="M460.894 54.0159L451.966 62.4639V75.9999H439.966V4.76794H451.966V47.7759L476.83 24.7359H491.23L469.822 46.2399L493.246 75.9999H478.654L460.894 54.0159Z" stroke="black" stroke-width="2" mask="url(#path-1-outside-1_436_381)"/>
<path d="M546.091 24.7359L522.091 80.1279C519.851 85.6959 517.131 89.5999 513.931 91.8399C510.731 94.1439 506.859 95.2959 502.315 95.2959C499.755 95.2959 497.227 94.8799 494.731 94.0479C492.235 93.2159 490.187 92.0639 488.587 90.5919L493.387 81.7599C494.539 82.8479 495.883 83.7119 497.419 84.3519C499.019 84.9919 500.619 85.3119 502.219 85.3119C504.331 85.3119 506.059 84.7679 507.403 83.6799C508.811 82.5919 510.091 80.7679 511.243 78.2079L512.107 76.1919L489.739 24.7359H502.219L518.347 62.6559L534.571 24.7359H546.091Z" stroke="black" stroke-width="2" mask="url(#path-1-outside-1_436_381)"/>
<path d="M553.591 24.7359H565.591V75.9999H553.591V24.7359ZM559.639 16.2879C557.463 16.2879 555.639 15.6159 554.167 14.2719C552.695 12.8639 551.959 11.1359 551.959 9.08794C551.959 7.03994 552.695 5.34394 554.167 3.99994C555.639 2.59194 557.463 1.88794 559.639 1.88794C561.815 1.88794 563.639 2.55994 565.111 3.90394C566.583 5.18394 567.319 6.81594 567.319 8.79994C567.319 10.9119 566.583 12.7039 565.111 14.1759C563.703 15.5839 561.879 16.2879 559.639 16.2879Z" stroke="black" stroke-width="2" mask="url(#path-1-outside-1_436_381)"/>
<path d="M55.608 180.448H22.008L15.384 196H2.52002L32.76 128.8H45.048L75.384 196H62.328L55.608 180.448ZM51.48 170.656L38.808 141.28L26.232 170.656H51.48Z" stroke="black" stroke-width="2" mask="url(#path-1-outside-1_436_381)"/>
<path d="M82.7783 124.768H94.7783V196H82.7783V124.768Z" stroke="black" stroke-width="2" mask="url(#path-1-outside-1_436_381)"/>
<path d="M158.72 170.656C158.72 171.488 158.656 172.672 158.528 174.208H118.304C119.008 177.984 120.832 180.992 123.776 183.232C126.784 185.408 130.496 186.496 134.912 186.496C140.544 186.496 145.184 184.64 148.832 180.928L155.264 188.32C152.96 191.072 150.048 193.152 146.528 194.56C143.008 195.968 139.04 196.672 134.624 196.672C128.992 196.672 124.032 195.552 119.744 193.312C115.456 191.072 112.128 187.968 109.76 184C107.456 179.968 106.304 175.424 106.304 170.368C106.304 165.376 107.424 160.896 109.664 156.928C111.968 152.896 115.136 149.76 119.168 147.52C123.2 145.28 127.744 144.16 132.8 144.16C137.792 144.16 142.24 145.28 146.144 147.52C150.112 149.696 153.184 152.8 155.36 156.832C157.6 160.8 158.72 165.408 158.72 170.656ZM132.8 153.76C128.96 153.76 125.696 154.912 123.008 157.216C120.384 159.456 118.784 162.464 118.208 166.24H147.296C146.784 162.528 145.216 159.52 142.592 157.216C139.968 154.912 136.704 153.76 132.8 153.76Z" stroke="black" stroke-width="2" mask="url(#path-1-outside-1_436_381)"/>
<path d="M201.481 196L188.329 178.24L175.081 196H161.833L181.801 169.984L162.697 144.736H176.041L188.617 161.536L201.193 144.736H214.153L194.953 169.792L215.017 196H201.481Z" stroke="black" stroke-width="2" mask="url(#path-1-outside-1_436_381)"/>
<path d="M270.377 170.656C270.377 171.488 270.313 172.672 270.185 174.208H229.961C230.665 177.984 232.489 180.992 235.433 183.232C238.441 185.408 242.153 186.496 246.569 186.496C252.201 186.496 256.841 184.64 260.489 180.928L266.921 188.32C264.617 191.072 261.705 193.152 258.185 194.56C254.665 195.968 250.697 196.672 246.281 196.672C240.649 196.672 235.689 195.552 231.401 193.312C227.113 191.072 223.785 187.968 221.417 184C219.113 179.968 217.961 175.424 217.961 170.368C217.961 165.376 219.081 160.896 221.321 156.928C223.625 152.896 226.793 149.76 230.825 147.52C234.857 145.28 239.401 144.16 244.457 144.16C249.449 144.16 253.897 145.28 257.801 147.52C261.769 149.696 264.841 152.8 267.017 156.832C269.257 160.8 270.377 165.408 270.377 170.656ZM244.457 153.76C240.617 153.76 237.353 154.912 234.665 157.216C232.041 159.456 230.441 162.464 229.865 166.24H258.953C258.441 162.528 256.873 159.52 254.249 157.216C251.625 154.912 248.361 153.76 244.457 153.76Z" stroke="black" stroke-width="2" mask="url(#path-1-outside-1_436_381)"/>
<path d="M328.966 144.736L304.966 200.128C302.726 205.696 300.006 209.6 296.806 211.84C293.606 214.144 289.734 215.296 285.19 215.296C282.63 215.296 280.102 214.88 277.606 214.048C275.11 213.216 273.062 212.064 271.462 210.592L276.262 201.76C277.414 202.848 278.758 203.712 280.294 204.352C281.894 204.992 283.494 205.312 285.094 205.312C287.206 205.312 288.934 204.768 290.278 203.68C291.686 202.592 292.966 200.768 294.118 198.208L294.982 196.192L272.614 144.736H285.094L301.222 182.656L317.446 144.736H328.966Z" stroke="black" stroke-width="2" mask="url(#path-1-outside-1_436_381)"/>
</svg>
